. 
 
http://www.torrenting.com          :     Once & For all ;)


               www . Torrenting . Com 

(((((((((((((= Enjoy No RAR releases =))))))))))))))))))))


...................................NFO:....................................

.[IMG]http://img688.imageshack.us/img688/8972/wroji.jpg[/IMG]


[color=blue][size=5][b]The.Big.Year.2011.EXTENDED.BDRip.XVID.AC3.HQ.Hive-CM8[/b][/size][/color]


[b]Thx Hive

CM8 Doing It Right The First Time :D


Source: Bluray

Video: 720x304 @bitrate 1700 2pass
Audio: English DTS to AC3 5.1 @384
Sample: Yes, included
Subs: Yes, english in srt /subs[/b]
 
http://www.imdb.com/title/tt1053810/


General
Complete name                  : The.Big.Year.2011.EXTENDED.BDRip.XVID.AC3.HQ.Hive-CM8.avi
Format                         : AVI
Format/Info                    : Audio Video Interleave
File size                      : 1.55 GiB
Duration                       : 1h 43mn
Overall bit rate               : 2 157 Kbps
Writing application            : Nandub v1.0rc2
Writing library                : Nandub build 1853/release

Video
ID                             : 0
Format                         : MPEG-4 Visual
Format profile                 : Advanced Simple@L5
Format settings, BVOP          : 1
Format settings, QPel          : Yes
Format settings, GMC           : No warppoints
Format settings, Matrix        : Default (H.263)
Muxing mode                    : Packed bitstream
Codec ID                       : XVID
Codec ID/Hint                  : XviD
Duration                       : 1h 43mn
Bit rate                       : 1 700 Kbps
Width                          : 720 pixels
Height                         : 304 pixels
Display aspect ratio           : 2.35:1
Frame rate                     : 23.976 fps
Color space                    : YUV
Chroma subsampling             : 4:2:0
Bit depth                      : 8 bits
Scan type                      : Progressive
Compression mode               : Lossy
Bits/(Pixel*Frame)             : 0.324
Stream size                    : 1.22 GiB (79%)
Writing library                : XviD 1.2.1 (UTC 2008-12-04)

Audio
ID                             : 1
Format                         : AC-3
Format/Info                    : Audio Coding 3
Mode extension                 : CM (complete main)
Codec ID                       : 2000
Duration                       : 1h 43mn
Bit rate mode                  : Constant
Bit rate                       : 448 Kbps
Channel(s)                     : 6 channels
Channel positions              : Front: L C R, Side: L R, LFE
Sampling rate                  : 48.0 KHz
Bit depth                      : 16 bits
Compression mode               : Lossy
Stream size                    : 331 MiB (21%)
Alignment                      : Split accross interleaves
Interleave, duration           : 42 ms (1.00 video frame)
Interleave, preload duration   : 500 ms


Plot:
Three avid bird watchers compete to spot the rarest birds in
North America at a prestigious annual event.


Cast:
Owen Wilson      ...    Kenny Bostick
Jack Black       ...    Brad Harris
Steve Martin     ...    Stu Preissler
Rosamund Pike    ...    Jessica


[img]http://img822.imageshack.us/img822/6025/80578840.png[/img]
[img]http://img714.imageshack.us/img714/4097/byby.png[/img]
[img]http://img802.imageshack.us/img802/5187/bybyby.png[/img]
[img]http://img62.imageshack.us/img62/3996/bybybybybyby.png[/img]
[img]http://img705.imageshack.us/img705/5998/bybybyby.png[/img]
[img]http://img824.imageshack.us/img824/5902/bybybybyby.png[/img]
[img]http://img814.imageshack.us/img814/4128/bybybybybybyby.png[/img]
[img]http://img713.imageshack.us/img713/6618/bybybybybybybyby.png[/img]



Greetz

ViSiON,SPK,SceneLovers,PRESTiGE,SANTi,3LT0N,YanKeeS,COPYxRIGHT,THC,T0XiC
D2U,LKRG,Feel-Free,FLAWL3SS,WBZ,BHRG,26K,NOVA,SeToNeUp,TED,MAGNET,jtr
Unevano,Rapeseed,SAFC,goldadvance,KaN1vE,Pinnz,Wayne
Mr Hive,and most P2P groups
Great Work Guys :D

LOOKING FOR ANYTHING YOU WANT TO LOOK AND SOUND BETTER

CM8@hushmail.com